<svg xmlns="http://www.w3.org/2000/svg" width="512" height="512" viewBox="0 0 512 512" version="1.1"><path d="M 269.271 150.485 C 261.516 152.655, 258.268 155.146, 238.059 174.416 L 219.618 192 208.059 192.017 C 185.909 192.051, 171.275 197.574, 158.013 210.906 C 132.627 236.427, 132.627 275.573, 158.013 301.094 C 171.284 314.435, 185.907 319.949, 208.102 319.983 L 219.704 320 238.102 337.593 C 248.221 347.269, 258.075 356.252, 260 357.554 C 264.954 360.907, 275.196 363.342, 280.887 362.521 C 291.397 361.005, 300.589 354.781, 305.554 345.819 L 308.500 340.500 308.500 256 L 308.500 171.500 305.554 166.181 C 298.436 153.333, 282.983 146.648, 269.271 150.485 M 264.687 178.693 C 260.184 182.924, 251.662 191.055, 245.750 196.762 L 235 207.137 235 256 L 235 304.863 245.750 315.238 C 271.455 340.048, 272.591 341, 276.486 341 C 281.184 341, 285.309 338.813, 286.805 335.528 C 287.698 333.568, 288 313.496, 288 256 C 288 198.504, 287.698 178.432, 286.805 176.472 C 285.309 173.187, 281.184 171, 276.486 171 C 273.358 171, 271.775 172.032, 264.687 178.693 M 342.763 205.516 C 339.635 207.269, 337 211.761, 337 215.338 C 337 216.679, 338.525 219.993, 340.390 222.703 C 348.079 233.882, 351.970 245.070, 351.970 256 C 351.970 266.425, 347.665 279.317, 341.389 287.682 C 337.651 292.665, 336.776 295.790, 338.042 299.628 C 339.573 304.267, 343.379 307, 348.306 307 C 351.776 307, 352.939 306.377, 356.589 302.568 C 358.925 300.131, 362.675 294.393, 364.924 289.818 C 375.778 267.733, 375.806 244.327, 365.005 222.346 C 357.685 207.450, 349.866 201.533, 342.763 205.516 M 194 214.362 C 185.627 216.181, 179.092 219.800, 172.716 226.149 C 159.813 238.996, 156.609 257.545, 164.366 274.488 C 167.675 281.716, 176.757 290.761, 184.222 294.263 C 190.417 297.170, 199.426 298.980, 207.750 298.992 L 213 299 213 256 L 213 213 206.250 213.084 C 202.537 213.130, 197.025 213.705, 194 214.362 M 315.923 227.923 C 311.889 231.957, 311.893 237.813, 315.935 243.776 C 317.529 246.128, 319.135 249.841, 319.504 252.026 C 320.475 257.769, 319.248 263.335, 315.935 268.224 C 309.878 277.160, 313.630 287, 323.094 287 C 326.811 287, 327.872 286.448, 331.564 282.594 C 338.078 275.796, 340.437 268.727, 340.437 256 C 340.437 243.273, 338.078 236.204, 331.564 229.406 C 327.872 225.552, 326.811 225, 323.094 225 C 319.732 225, 318.236 225.610, 315.923 227.923" stroke="none" fill="#fafafc" fill-rule="evenodd"/><path d="M 223.564 1.625 C 189.116 6.037, 148.947 20.301, 120.811 38.112 C 88.146 58.791, 58.791 88.146, 38.112 120.811 C 24.679 142.030, 11.372 174.858, 5.607 201 C -0.045 226.628, -1.671 260.991, 1.536 287.030 C 10.196 357.364, 47.940 421.458, 105.368 463.352 C 132.560 483.189, 167.874 499.081, 201.066 506.419 C 226.181 511.971, 259.987 513.582, 286.441 510.488 C 349.786 503.078, 410.477 470.394, 451.687 421.500 C 483.128 384.195, 505.455 333.267, 510.283 287.838 C 510.916 281.877, 511.787 277, 512.217 277 C 512.648 277, 512.964 266.988, 512.921 254.750 C 512.878 242.512, 512.566 233.175, 512.229 234 C 511.891 234.825, 511.041 230.441, 510.338 224.258 C 505.304 179.926, 485.352 132.642, 456.219 96 C 446.540 83.825, 428.152 65.440, 416 55.787 C 378.526 26.019, 334.104 7.332, 287.030 1.536 C 271.561 -0.369, 238.774 -0.323, 223.564 1.625 M 269.271 150.485 C 261.516 152.655, 258.268 155.146, 238.059 174.416 L 219.618 192 208.059 192.017 C 185.909 192.051, 171.275 197.574, 158.013 210.906 C 132.627 236.427, 132.627 275.573, 158.013 301.094 C 171.284 314.435, 185.907 319.949, 208.102 319.983 L 219.704 320 238.102 337.593 C 248.221 347.269, 258.075 356.252, 260 357.554 C 264.954 360.907, 275.196 363.342, 280.887 362.521 C 291.397 361.005, 300.589 354.781, 305.554 345.819 L 308.500 340.500 308.500 256 L 308.500 171.500 305.554 166.181 C 298.436 153.333, 282.983 146.648, 269.271 150.485 M 264.687 178.693 C 260.184 182.924, 251.662 191.055, 245.750 196.762 L 235 207.137 235 256 L 235 304.863 245.750 315.238 C 271.455 340.048, 272.591 341, 276.486 341 C 281.184 341, 285.309 338.813, 286.805 335.528 C 287.698 333.568, 288 313.496, 288 256 C 288 198.504, 287.698 178.432, 286.805 176.472 C 285.309 173.187, 281.184 171, 276.486 171 C 273.358 171, 271.775 172.032, 264.687 178.693 M 342.763 205.516 C 339.635 207.269, 337 211.761, 337 215.338 C 337 216.679, 338.525 219.993, 340.390 222.703 C 348.079 233.882, 351.970 245.070, 351.970 256 C 351.970 266.425, 347.665 279.317, 341.389 287.682 C 337.651 292.665, 336.776 295.790, 338.042 299.628 C 339.573 304.267, 343.379 307, 348.306 307 C 351.776 307, 352.939 306.377, 356.589 302.568 C 358.925 300.131, 362.675 294.393, 364.924 289.818 C 375.778 267.733, 375.806 244.327, 365.005 222.346 C 357.685 207.450, 349.866 201.533, 342.763 205.516 M 194 214.362 C 185.627 216.181, 179.092 219.800, 172.716 226.149 C 159.813 238.996, 156.609 257.545, 164.366 274.488 C 167.675 281.716, 176.757 290.761, 184.222 294.263 C 190.417 297.170, 199.426 298.980, 207.750 298.992 L 213 299 213 256 L 213 213 206.250 213.084 C 202.537 213.130, 197.025 213.705, 194 214.362 M 315.923 227.923 C 311.889 231.957, 311.893 237.813, 315.935 243.776 C 317.529 246.128, 319.135 249.841, 319.504 252.026 C 320.475 257.769, 319.248 263.335, 315.935 268.224 C 309.878 277.160, 313.630 287, 323.094 287 C 326.811 287, 327.872 286.448, 331.564 282.594 C 338.078 275.796, 340.437 268.727, 340.437 256 C 340.437 243.273, 338.078 236.204, 331.564 229.406 C 327.872 225.552, 326.811 225, 323.094 225 C 319.732 225, 318.236 225.610, 315.923 227.923 M 0.428 256 C 0.428 268.375, 0.571 273.438, 0.747 267.250 C 0.922 261.063, 0.922 250.938, 0.747 244.750 C 0.571 238.563, 0.428 243.625, 0.428 256" stroke="none" fill="#5c4cf4" fill-rule="evenodd"/></svg>